<?xml version="1.0" standalone="no"?><!DOCTYPE svg PUBLIC "-//W3C//DTD SVG 1.1//EN" "http://www.w3.org/Graphics/SVG/1.1/DTD/svg11.dtd"><svg t="1637318527404" class="icon" viewBox="0 0 1024 1024" version="1.1" xmlns="http://www.w3.org/2000/svg" p-id="2497" xmlns:xlink="http://www.w3.org/1999/xlink" width="200" height="200"><defs><style type="text/css"></style></defs><path d="M640.8 1023.2c-49.6 0-92.8-64-92.8-116.8V641.6c0-51.2 41.6-92.8 92.8-92.8h289.6c51.2 0 92.8 41.6 92.8 92.8v288.8c0 51.2-41.6 92.8-92.8 92.8H640.8z m1.6-426.4c-26.4 0-48 21.6-48 48v285.6c0 26.4 21.6 48 48 48H928c26.4 0 48-21.6 48-48V644.8c0-26.4-21.6-48-48-48H642.4z m-548.8 426.4c-49.6 0-92.8-64-92.8-116.8V641.6c0-51.2 41.6-92.8 92.8-92.8h289.6c51.2 0 92.8 41.6 92.8 92.8v288.8c0 51.2-41.6 92.8-92.8 92.8H93.6z m1.6-426.4c-26.4 0-48 21.6-48 48v285.6c0 26.4 21.6 48 48 48h285.6c26.4 0 48-21.6 48-48V644.8c0-26.4-21.6-48-48-48H95.2z m545.6-120.8c-49.6 0-92.8-64-92.8-116.8V94.4C548 43.2 589.6 1.6 640.8 1.6h289.6c51.2 0 92.8 41.6 92.8 92.8v288.8c0 51.2-41.6 92.8-92.8 92.8H640.8z m1.6-426.4c-26.4 0-48 21.6-48 48v285.6c0 26.4 21.6 48 48 48H928c26.4 0 48-21.6 48-48V97.6c0-26.4-21.6-48-48-48H642.4zM93.6 476C44 476 0.8 412 0.8 359.2V94.4C0.8 43.2 42.4 1.6 93.6 1.6h289.6c51.2 0 92.8 41.6 92.8 92.8v288.8c0 51.2-41.6 92.8-92.8 92.8H93.6z m1.6-426.4c-26.4 0-48 21.6-48 48v285.6c0 26.4 21.6 48 48 48h285.6c26.4 0 48-21.6 48-48V97.6c0-26.4-21.6-48-48-48H95.2z" fill="" p-id="2498"></path></svg>