<?xml version="1.0" standalone="no"?><!DOCTYPE svg PUBLIC "-//W3C//DTD SVG 1.1//EN" "http://www.w3.org/Graphics/SVG/1.1/DTD/svg11.dtd"><svg t="1637318072077" class="icon" viewBox="0 0 1024 1024" version="1.1" xmlns="http://www.w3.org/2000/svg" p-id="4059" xmlns:xlink="http://www.w3.org/1999/xlink" width="200" height="200"><defs><style type="text/css"></style></defs><path d="M240.26 468.89c-17.24 0.86-33.37-10.32-38.06-27.67l-83.41-307.66c-5.43-20.01 6.39-40.62 26.41-46.05 19.94-5.45 40.62 6.38 46.04 26.42l83.42 307.66c5.42 20.01-6.41 40.62-26.42 46.05-2.66 0.72-5.33 1.12-7.98 1.25z" fill="#F7B52C" p-id="4060"></path><path d="M796.81 790.8H324.63c-22.25 0-41.51-14.2-46.26-34.13L177.3 333.28h708c30.23 0 52.72 25.61 46.26 52.68l-88.5 370.71c-4.75 19.93-24 34.13-46.25 34.13z" fill="#F7B52C" p-id="4061"></path><path d="M710.38 713.85H410.1c-20.73 0-37.54-16.81-37.54-37.54s16.81-37.54 37.54-37.54h300.29c20.73 0 37.54 16.81 37.54 37.54s-16.82 37.54-37.55 37.54z" fill="#FFFFFF" p-id="4062"></path><path d="M485.45 944.45H374.96c-20.74 0-37.54-16.81-37.54-37.54 0-20.72 16.8-37.54 37.54-37.54h110.49c20.74 0 37.54 16.81 37.54 37.54-0.01 20.73-16.81 37.54-37.54 37.54zM758.02 944.45c-20.74 0-37.54-16.81-37.54-37.54v-4.2c0-20.72 16.8-37.54 37.54-37.54s37.54 16.81 37.54 37.54v4.2c0 20.73-16.8 37.54-37.54 37.54z" fill="#F7B52C" p-id="4063"></path></svg>