<?xml version="1.0" standalone="no"?><!DOCTYPE svg PUBLIC "-//W3C//DTD SVG 1.1//EN" "http://www.w3.org/Graphics/SVG/1.1/DTD/svg11.dtd"><svg t="1637318164383" class="icon" viewBox="0 0 1024 1024" version="1.1" xmlns="http://www.w3.org/2000/svg" p-id="4582" xmlns:xlink="http://www.w3.org/1999/xlink" width="200" height="200"><defs><style type="text/css"></style></defs><path d="M943.4 264.2c-14.3-17.7-35.5-27.8-58.2-27.8H496c-20.6 0-37.3 16.7-37.3 37.3 0 20.6 16.7 37.3 37.3 37.3l389.5 0.4-77.3 358.9-432.9-0.3-21.5-142.8h302.3c20.6 0 37.3-16.7 37.3-37.3s-16.7-37.3-37.3-37.3H342.6L297.4 153c-5.6-36.9-36.7-63.8-74.1-63.8H101.2c-20.6 0-37.3 16.7-37.3 37.3s16.7 37.3 37.3 37.3l122.5 0.3L301.6 681c5.5 36.3 37.3 63.8 74 63.8h432.5c35.1 0 65.9-24.9 73.2-59.2l77-358.6c4.9-22.2-0.6-45.1-14.9-62.8zM335.8 782c-42.1 0-76.4 34.3-76.4 76.4s34.3 76.4 76.4 76.4 76.4-34.3 76.4-76.4-34.3-76.4-76.4-76.4z m-1.8 76.4c0-1 0.8-1.8 1.8-1.8s1.8 0.8 1.8 1.8c0.1 1.9-3.6 2-3.6 0zM777.3 782c-42.1 0-76.4 34.3-76.4 76.4s34.3 76.4 76.4 76.4 76.4-34.3 76.4-76.4-34.3-76.4-76.4-76.4z m-1.9 76.4c0-1 0.8-1.8 1.8-1.8s1.8 0.8 1.8 1.8c0.1 2-3.6 2-3.6 0z" p-id="4583"></path></svg>