<?xml version="1.0" standalone="no"?><!DOCTYPE svg PUBLIC "-//W3C//DTD SVG 1.1//EN" "http://www.w3.org/Graphics/SVG/1.1/DTD/svg11.dtd"><svg t="1637318273060" class="icon" viewBox="0 0 1024 1024" version="1.1" xmlns="http://www.w3.org/2000/svg" p-id="5727" xmlns:xlink="http://www.w3.org/1999/xlink" width="200" height="200"><defs><style type="text/css"></style></defs><path d="M369.752747 176.790187c-19.84512 55.37792-48.45568 112.254293-75.567787 150.326613-11.65312 16.267947-20.189867 26.4192-34.495147 41.07264l-13.73184 13.960533 40.034987 22.842027 39.918933 22.729387 8.6528-8.420693c10.499413-10.38336 34.495147-37.034667 46.26432-51.456l8.6528-10.615467 23.302827-9.806507c12.806827-5.423787 24.692053-10.38336 26.422613-11.076267l3.11296-1.153707-4.266667 7.847253c-23.074133 41.53344-53.99552 87.565653-76.721493 113.984853-5.07904 5.884587-9.117013 11.076267-9.00096 11.537067 0 0.576853 10.84416 10.38336 24.111787 21.804373l23.999147 20.770133-25.265493 0.344747-25.268907 0.228693 0 57.688747 162.676053 0 0 137.632427-10.615467-0.805547c-23.074133-1.727147-40.379733-7.727787-48.45568-16.612693-9.46176-10.496-11.997867-29.187413-8.536747-61.83936 1.037653-9.458347 1.8432-19.145387 1.8432-21.572267l0-4.49536L390.519467 601.705813c-45.45536 0-56.763733 0.344747-58.494293 1.49504-3.11296 2.307413-5.075627 16.151893-5.884587 41.188693-0.9216 24.22784 0.464213 38.99392 4.962987 56.989013 11.188907 44.42112 37.956267 71.072427 81.104213 80.759467 10.154667 2.194773 14.19264 2.42688 54.801067 2.307413 33.460907 0 47.99488-0.4608 61.494613-1.95584 75.44832-8.54016 136.482133-28.84608 184.70912-61.610667 6.690133-4.498773 12.57472-7.959893 12.919467-7.499093 0.464213 0.4608 4.154027 13.725013 8.424107 29.65504 4.27008 15.80032 7.847253 28.955307 8.075947 29.187413 0.228693 0.232107 21.11488-8.192 46.380373-18.691413 29.764267-12.342613 45.912747-19.6096 45.687467-20.538027-0.34816-1.846613-61.146453-151.135573-61.83936-151.712427-0.4608-0.4608-74.30144 22.03648-75.106987 22.961493-0.232107 0.228693 2.65216 11.76576 6.46144 25.726293 3.693227 13.960533 6.806187 25.726293 6.806187 26.30656 0 1.3824-18.230613 12.806827-29.88032 18.691413-8.6528 4.266667-32.768 14.421333-34.379093 14.421333-0.228693 0-0.34816-26.996053-0.34816-59.989333l0-59.992747 159.214933 0 0-57.688747-159.214933 0 0-71.529813 160.365227 0 0-57.685333L522.8544 382.501547l6.341973-7.84384c16.728747-20.76672 36.109653-51.688107 33.918293-53.99552-0.344747-0.344747-10.151253-3.11296-21.804373-6.229333-11.65312-3.229013-22.268587-6.229333-23.538347-6.690133-3.693227-1.614507 58.262187-21.57568 96.914773-31.266133 70.95296-17.650347 126.214827-20.421973 164.4032-8.075947 14.998187 4.959573 25.14944 11.19232 36.34176 22.381227 8.533333 8.424107 11.421013 12.229973 15.22688 20.189867 5.884587 11.997867 9.00096 23.074133 10.73152 37.843627 0.925013 7.84384 1.153707 66.454187 0.925013 194.054827l-0.34816 182.862507-3.2256 10.267307c-5.888 18.694827-12.346027 29.53216-24.347307 40.727893-17.65376 16.612693-41.765547 24.572587-74.06592 24.572587-12.806827 0-16.728747-0.576853-48.459093-7.499093-18.920107-4.037973-34.839893-7.038293-35.188053-6.577493-0.9216 0.925013-16.032427 61.83936-16.032427 64.262827 0 1.962667 3.805867 3.116373 25.381547 7.499093 34.614613 7.038293 50.991787 8.533333 92.296533 8.6528 41.188693 0 50.9952-0.925013 77.755733-7.734613 75.5712-19.032747 119.985493-69.451093 129.792-147.438933 4.041387-31.8464 7.734613-83.991893 9.46176-133.833387 2.884267-81.79712-2.19136-175.363413-12.92288-239.9744-3.918507-23.302827-9.690453-38.07232-21.68832-55.02976-45.919573-65.071787-147.677867-92.183893-286.81216-76.4928-51.920213 5.884587-120.91392 19.729067-176.288427 35.304107-5.65248 1.614507-10.499413 2.65216-10.84416 2.307413-0.232107-0.232107 2.884267-6.693547 6.92224-14.19264 11.881813-21.456213 20.882773-40.72448 19.729067-41.762133-1.037653-0.925013-113.179307-32.41984-115.258027-32.41984C377.596587 156.368213 373.674667 165.597867 369.752747 176.790187L369.752747 176.790187zM512.58368 475.94496l0 35.764907-110.987947 0 34.955947-35.648853 35.072-35.764907 20.538027 0 20.421973-0.116053L512.58368 475.94496zM190.81216 170.328747c-31.266133 6.11328-56.992427 28.726613-64.146773 56.415573-3.00032 11.421013-2.53952 26.190507 1.037653 37.61152 16.500053 51.572053 85.835093 71.529813 132.79232 37.956267 19.84512-14.073173 31.034027-35.072 31.034027-58.262187 0-19.380907-6.690133-35.188053-21.22752-49.72544-12.342613-12.458667-26.074453-19.841707-43.264-23.534933C218.269013 168.942933 199.00416 168.71424 190.81216 170.328747zM112.820907 388.379307c-13.960533 21.57568-25.4976 39.80288-25.729707 40.61184-0.11264 0.805547 21.346987 14.882133 47.88224 31.266133 63.68256 39.570773 59.76064 36.80256 69.567147 46.72512 27.22816 27.3408 27.460267 58.37824 1.037653 97.027413-21.804373 31.842987-77.06624 91.603627-134.98368 146.059947-12.690773 11.881813-22.842027 22.03648-22.729387 22.613333 0.464213 1.153707 124.13952 78.219947 125.641387 78.219947 0.576853 0 2.075307-2.19136 3.229013-4.959573 4.614827-10.499413 35.536213-76.4928 58.149547-123.798187 13.03552-27.22816 25.842347-55.033173 28.494507-61.719893 11.997867-29.999787 26.30656-78.800213 30.22848-103.140693 0.805547-5.07904 1.3824-17.54112 1.26976-27.692373 0-14.998187-0.464213-20.186453-2.53952-27.685547-3.00032-11.424427-8.997547-24.1152-15.57504-33.344853-6.577493-9.229653-47.99488-49.72544-66.914987-65.529173-14.769493-12.346027-67.375787-52.381013-70.147413-53.418667C138.779307 349.269333 128.512 364.151467 112.820907 388.379307L112.820907 388.379307z" p-id="5728"></path></svg>