<?xml version="1.0" standalone="no"?><!DOCTYPE svg PUBLIC "-//W3C//DTD SVG 1.1//EN" "http://www.w3.org/Graphics/SVG/1.1/DTD/svg11.dtd"><svg t="1637318061727" class="icon" viewBox="0 0 1024 1024" version="1.1" xmlns="http://www.w3.org/2000/svg" p-id="3927" xmlns:xlink="http://www.w3.org/1999/xlink" width="200" height="200"><defs><style type="text/css"></style></defs><path d="M633.7 719.1C759.5 669.7 848.9 547 848.9 403.9c0-186.6-151.8-338.5-338.5-338.5S171.9 217.3 171.9 403.9c0 143.1 89.3 265.9 215.2 315.3-73.8 42.7-123.5 122.5-123.5 213.7 0 15.6 12.6 28.2 28.2 28.2s28.2-12.6 28.2-28.2c0-105 85.4-190.4 190.4-190.4s190.4 85.4 190.4 190.4c0 15.6 12.6 28.2 28.2 28.2s28.2-12.7 28.2-28.2c0-91.2-49.7-171-123.5-213.8zM228.3 403.9c0-155.5 126.5-282.1 282.1-282.1 155.5 0 282.1 126.6 282.1 282.1S666 686 510.4 686 228.3 559.4 228.3 403.9z" fill="#FC592D" p-id="3928"></path><path d="M510.4 562.1c-45.5 0-87.2-10.9-111.8-29.2-12.5-9.3-15.1-27-5.8-39.5s27-15.1 39.5-5.8c12.1 9 40.9 18.1 78.1 18.1s66-9.1 78.1-18c12.5-9.3 30.2-6.7 39.5 5.8s6.7 30.2-5.8 39.5c-24.5 18.1-66.3 29.1-111.8 29.1z" fill="#FFCE00" p-id="3929"></path></svg>