<?xml version="1.0" standalone="no"?><!DOCTYPE svg PUBLIC "-//W3C//DTD SVG 1.1//EN" "http://www.w3.org/Graphics/SVG/1.1/DTD/svg11.dtd"><svg t="1637318120729" class="icon" viewBox="0 0 1024 1024" version="1.1" xmlns="http://www.w3.org/2000/svg" p-id="4193" xmlns:xlink="http://www.w3.org/1999/xlink" width="200" height="200"><defs><style type="text/css"></style></defs><path d="M817.71815822 879.85599525c-7.45654045 0-13.67032415-2.48551348-19.88410785-7.45654043-42.25372918-34.79718875-118.06189037-59.65232355-207.5403757-68.35162074C574.13783703 802.80507733 561.71026963 789.13475318 561.71026963 772.97891555v-64.62335052c0-12.42756741 8.69929718-24.85513482 19.88410785-28.58340503C673.5583763 646.217728 734.45345659 553.01097245 734.45345659 449.86216297c0-134.217728-101.90605275-243.58032118-226.18172681-243.58032119S282.09000297 315.64443497 282.09000297 449.86216297c0 105.63432297 62.13783703 197.59832178 155.34459258 231.15275378 12.42756741 4.97102697 21.12686459 16.15583763 21.1268646 29.82616177v64.62335051c0 16.15583763-12.42756741 29.82616178-27.3406483 31.06891852-89.47848533 7.45654045-162.80113303 32.31167525-205.05486222 65.86610727-13.67032415 11.18481067-32.31167525 8.69929718-43.49648593-4.97102697-11.18481067-13.67032415-8.69929718-32.31167525 4.97102697-43.49648593 45.98199941-38.52545897 120.54740385-65.86610725 208.78313244-78.29367467v-16.15583762C290.78930015 683.50043022 219.95216592 572.8950803 219.95216592 449.86216297c0-167.77216 129.24670103-305.71815822 288.31956386-305.71815822s288.31956385 136.70324148 288.31956385 305.71815822c0 121.79016059-68.35162075 231.15275378-172.74318696 279.62026666v16.15583762c90.72124208 12.42756741 165.28664652 39.7682157 212.51140266 78.29367467 13.67032415 11.18481067 14.91308089 29.82616178 4.97102697 43.49648593-6.2137837 8.69929718-14.91308089 12.42756741-23.61237808 12.4275674z" fill="#3D4245" p-id="4194"></path></svg>