<?xml version="1.0" standalone="no"?><!DOCTYPE svg PUBLIC "-//W3C//DTD SVG 1.1//EN" "http://www.w3.org/Graphics/SVG/1.1/DTD/svg11.dtd"><svg t="1637318018031" class="icon" viewBox="0 0 1170 1024" version="1.1" xmlns="http://www.w3.org/2000/svg" p-id="3540" xmlns:xlink="http://www.w3.org/1999/xlink" width="228.515625" height="200"><defs><style type="text/css"></style></defs><path d="M591.335619 1006.201905c-16.432762 0-36.961524-8.289524-49.249524-20.577524-28.769524-28.769524-65.77981-69.778286-94.500571-98.499048-12.336762-12.385524-20.48-24.722286-28.769524-32.914285H123.221333C53.394286 854.211048 0 804.961524 0 739.230476V114.980571C-0.048762 53.345524 53.345524 0 114.980571 0H1051.306667c61.635048 0 114.980571 53.345524 114.980571 114.980571v620.153905c0 61.586286-53.345524 114.93181-114.980571 114.93181h-291.596191l-119.125333 123.270095c-12.288 16.384-28.720762 24.624762-45.153524 24.624762 0 8.192 0 8.192-4.096 8.192v0.048762z" fill="#DCA45C" p-id="3541"></path><path d="M228.205714 422.66819c0 37.010286 28.769524 65.731048 65.731048 65.731048a64.853333 64.853333 0 0 0 65.731048-65.731048A64.853333 64.853333 0 0 0 293.936762 356.937143 64.853333 64.853333 0 0 0 228.205714 422.66819z m291.596191 0c0 37.010286 28.769524 65.731048 65.731047 65.731048a64.853333 64.853333 0 0 0 65.682286-65.731048 64.853333 64.853333 0 0 0-65.682286-65.731047 64.853333 64.853333 0 0 0-65.682285 65.731047z m291.59619 0c0 37.010286 28.769524 65.731048 65.682286 65.731048a64.853333 64.853333 0 0 0 65.779809-65.731048 64.853333 64.853333 0 0 0-65.779809-65.731047 64.853333 64.853333 0 0 0-65.682286 65.731047z" fill="#FFFFFF" p-id="3542"></path></svg>