<?xml version="1.0" standalone="no"?><!DOCTYPE svg PUBLIC "-//W3C//DTD SVG 1.1//EN" "http://www.w3.org/Graphics/SVG/1.1/DTD/svg11.dtd"><svg t="1637318040805" class="icon" viewBox="0 0 1024 1024" version="1.1" xmlns="http://www.w3.org/2000/svg" p-id="3668" xmlns:xlink="http://www.w3.org/1999/xlink" width="200" height="200"><defs><style type="text/css"></style></defs><path d="M0 0h1024v1024H0z" fill="#202425" opacity=".01" p-id="3669"></path><path d="M102.4 307.2a170.666667 170.666667 0 0 1 170.666667-170.666667h477.866666a170.666667 170.666667 0 0 1 170.666667 170.666667v273.066667a170.666667 170.666667 0 0 1-170.666667 170.666666h-102.4a34.133333 34.133333 0 0 0-24.132266 10.001067L512 873.335467l-112.401067-112.401067A34.133333 34.133333 0 0 0 375.466667 750.933333H273.066667a170.666667 170.666667 0 0 1-170.666667-170.666666V307.2z m170.666667-238.933333a238.933333 238.933333 0 0 0-238.933334 238.933333v273.066667a238.933333 238.933333 0 0 0 238.933334 238.933333h88.2688l126.532266 126.532267a34.133333 34.133333 0 0 0 48.264534 0L662.664533 819.2H750.933333a238.933333 238.933333 0 0 0 238.933334-238.933333V307.2a238.933333 238.933333 0 0 0-238.933334-238.933333H273.066667z m68.266666 375.466666a68.266667 68.266667 0 1 0-136.533333 0 68.266667 68.266667 0 0 0 136.533333 0z m238.933334 0a68.266667 68.266667 0 1 0-136.533334 0 68.266667 68.266667 0 0 0 136.533334 0z m238.933333 0a68.266667 68.266667 0 1 0-136.533333 0 68.266667 68.266667 0 0 0 136.533333 0z" fill="#202425" p-id="3670"></path></svg>